<svg width="32" height="32" viewBox="0 0 32 32" fill="none" xmlns="http://www.w3.org/2000/svg">
<path d="M26.6667 4H5.33341C4.62617 4 3.94789 4.28095 3.4478 4.78105C2.9477 5.28115 2.66675 5.95942 2.66675 6.66667V25.3333C2.66675 26.0406 2.9477 26.7189 3.4478 27.219C3.94789 27.719 4.62617 28 5.33341 28H26.6667C27.374 28 28.0523 27.719 28.5524 27.219C29.0525 26.7189 29.3334 26.0406 29.3334 25.3333V6.66667C29.3334 5.95942 29.0525 5.28115 28.5524 4.78105C28.0523 4.28095 27.374 4 26.6667 4ZM14.6667 22.6667H6.66675V20H14.6667V22.6667ZM25.3334 17.3333H6.66675V14.6667H25.3334V17.3333ZM25.3334 12H6.66675V9.33333H25.3334V12Z" fill="black"/>
</svg>
