<svg width="78" height="72" viewBox="0 0 78 72" fill="none" xmlns="http://www.w3.org/2000/svg">
<path fill-rule="evenodd" clip-rule="evenodd" d="M4.44165 34.325C4.44165 32.558 5.14359 30.8633 6.39305 29.6139C7.64251 28.3644 9.33715 27.6625 11.1042 27.6625H42.1958C43.9628 27.6625 45.6575 28.3644 46.9069 29.6139C48.1564 30.8633 48.8583 32.558 48.8583 34.325V56.5333C48.8583 58.3003 48.1564 59.9949 46.9069 61.2444C45.6575 62.4939 43.9628 63.1958 42.1958 63.1958H25.1687L17.7667 68.7479C15.9367 70.1204 13.325 68.8145 13.325 66.5271V63.1958H11.1042C9.33715 63.1958 7.64251 62.4939 6.39305 61.2444C5.14359 59.9949 4.44165 58.3003 4.44165 56.5333V34.325ZM11.1042 32.1041C10.5151 32.1041 9.95027 32.3381 9.53378 32.7546C9.1173 33.1711 8.88332 33.736 8.88332 34.325V56.5333C8.88332 57.1223 9.1173 57.6872 9.53378 58.1037C9.95027 58.5202 10.5151 58.7541 11.1042 58.7541H14.4354C15.3189 58.7541 16.1662 59.1051 16.791 59.7298C17.4157 60.3546 17.7667 61.2019 17.7667 62.0854V63.1958L22.5037 59.6425C23.2725 59.0658 24.2076 58.7541 25.1687 58.7541H42.1958C42.7848 58.7541 43.3497 58.5202 43.7662 58.1037C44.1827 57.6872 44.4166 57.1223 44.4166 56.5333V34.325C44.4166 33.736 44.1827 33.1711 43.7662 32.7546C43.3497 32.3381 42.7848 32.1041 42.1958 32.1041H11.1042Z" fill="white"/>
<path d="M63.05 6.66663L67.3834 15.3333H60.8834L56.55 6.66663H52.2167L56.55 15.3333H50.05L45.7167 6.66663H41.3834L45.7167 15.3333H39.2167L34.8834 6.66663H32.7167C30.3334 6.66663 28.405 8.61663 28.405 11L28.3834 37C28.3834 39.3833 30.3334 41.3333 32.7167 41.3333H67.3834C69.7667 41.3333 71.7167 39.3833 71.7167 37V6.66663H63.05Z" fill="white"/>
</svg>
