<svg width="19" height="18" viewBox="0 0 19 18" fill="none" xmlns="http://www.w3.org/2000/svg">
<path d="M10.5 4.80025C10.5 4.38604 10.1642 4.05025 9.75 4.05025V4.05025C9.33579 4.05025 9 4.38604 9 4.80025V9.43062C9 9.7836 9.18609 10.1104 9.48965 10.2906L12.6751 12.181C13.0093 12.3793 13.441 12.2695 13.6397 11.9355V11.9355C13.8387 11.6012 13.7288 11.1688 13.3943 10.97L10.9891 9.54068C10.6859 9.36046 10.5 9.03379 10.5 8.68102V4.80025ZM10 0C7.61305 0 5.32387 0.948211 3.63604 2.63604C1.94821 4.32387 1 6.61305 1 9H0L2 12L4 9H3C3 7.14348 3.7375 5.36301 5.05025 4.05025C6.36301 2.7375 8.14348 2 10 2C11.8565 2 13.637 2.7375 14.9497 4.05025C16.2625 5.36301 17 7.14348 17 9C17 10.8565 16.2625 12.637 14.9497 13.9497C13.637 15.2625 11.8565 16 10 16C8.43067 16 6.98035 15.4777 5.8157 14.5997C5.37346 14.2663 4.73834 14.2617 4.34672 14.6533V14.6533C3.95766 15.0423 3.94947 15.6811 4.37768 16.0266C5.03656 16.5582 5.76928 16.9942 6.55433 17.32C7.64632 17.7733 8.81768 18.0045 10 18C12.3869 18 14.6761 17.0518 16.364 15.364C18.0518 13.6761 19 11.3869 19 9C19 6.61305 18.0518 4.32387 16.364 2.63604C14.6761 0.948211 12.3869 0 10 0Z" fill="white"/>
</svg>
