<svg width="18" height="16" viewBox="0 0 18 16" fill="none" xmlns="http://www.w3.org/2000/svg">
<path d="M4 10.5H14C14.1427 10.5 14.2617 10.4523 14.357 10.357C14.4523 10.2617 14.5 10.1427 14.5 10C14.5 9.85734 14.4523 9.73833 14.357 9.643C14.2617 9.54767 14.1427 9.5 14 9.5H4C3.858 9.5 3.739 9.54767 3.643 9.643C3.547 9.73833 3.49933 9.85734 3.5 10C3.50067 10.1427 3.54833 10.2617 3.643 10.357C3.73767 10.4523 3.85667 10.5 4 10.5ZM4 7.5H14C14.1427 7.5 14.2617 7.45234 14.357 7.357C14.4523 7.26167 14.5 7.14267 14.5 7C14.5 6.85734 14.4523 6.73834 14.357 6.643C14.2617 6.54767 14.1427 6.5 14 6.5H4C3.858 6.5 3.739 6.54767 3.643 6.643C3.547 6.73834 3.49933 6.85734 3.5 7C3.50067 7.14267 3.54833 7.26167 3.643 7.357C3.73767 7.45234 3.85667 7.5 4 7.5ZM4 4.5H14C14.1427 4.5 14.2617 4.45234 14.357 4.357C14.4523 4.26167 14.5 4.14267 14.5 4C14.5 3.85734 14.4523 3.73834 14.357 3.643C14.2617 3.54767 14.1427 3.5 14 3.5H4C3.858 3.5 3.739 3.54767 3.643 3.643C3.547 3.73834 3.49933 3.85734 3.5 4C3.50067 4.14267 3.54833 4.26167 3.643 4.357C3.73767 4.45234 3.85667 4.5 4 4.5ZM1.616 14C1.15533 14 0.771 13.846 0.463 13.538C0.155 13.23 0.000666667 12.8457 0 12.385V1.615C0 1.155 0.154333 0.770669 0.463 0.462002C0.771667 0.153335 1.15567 -0.000664511 1.615 2.15517e-06H16.385C16.845 2.15517e-06 17.229 0.154002 17.537 0.462002C17.845 0.770002 17.9993 1.15434 18 1.615V15.133C18 15.493 17.8343 15.7413 17.503 15.878C17.1717 16.0147 16.8797 15.9567 16.627 15.704L14.923 14H1.616ZM15.35 13L17 14.644V1.616C17 1.462 16.936 1.32067 16.808 1.192C16.68 1.06334 16.539 0.999335 16.385 1H1.615C1.46167 1 1.32067 1.064 1.192 1.192C1.06333 1.32 0.999333 1.461 1 1.615V12.385C1 12.5383 1.064 12.6793 1.192 12.808C1.32 12.9367 1.461 13.0007 1.615 13H15.35Z" fill="white"/>
</svg>
