<svg width="23" height="32" viewBox="0 0 23 32" fill="none" xmlns="http://www.w3.org/2000/svg">
<path d="M9.40729 11.5421L2.80401 4.92373C2.37678 4.49104 2.13872 3.90649 2.14209 3.29843C2.14547 2.69036 2.39 2.10849 2.82201 1.68057C3.03306 1.46653 3.28427 1.29624 3.56124 1.17946C3.83822 1.06268 4.13552 1.00171 4.4361 1.00004C4.73668 0.998363 5.03464 1.05602 5.31289 1.16971C5.59115 1.2834 5.84424 1.45089 6.05765 1.66257L17.7371 13.2507C21.7243 17.2469 24.0224 22.4851 19.5717 27.8974L19.0977 28.3729C18.2672 29.2057 17.2806 29.8664 16.1943 30.3172C15.108 30.768 13.9435 31 12.7674 31C11.5914 31 10.4268 30.768 9.34057 30.3172C8.25431 29.8664 7.26767 29.2057 6.43717 28.3729L1.65496 23.6477C0.765427 22.7581 0.784929 21.2956 1.69547 20.382C2.558 19.5165 3.91556 19.455 4.8111 20.2095M9.40729 11.5421L13.1725 15.3133M9.40729 11.5421C8.51776 10.651 7.02219 10.672 6.10715 11.5886C5.19061 12.5066 5.16961 13.9722 6.05765 14.8617L7.1497 15.9568M4.8111 20.2095L3.87356 19.2975C2.98402 18.4064 3.00652 16.9408 3.92156 16.0243C4.8366 15.1077 6.26166 15.0657 7.1497 15.9568M4.8111 20.2095L6.50617 21.8596M4.8111 20.2095C4.8611 20.2515 4.9086 20.2955 4.95361 20.3415M7.1497 15.9568L9.82581 18.6374M11.7039 7.26535C11.9559 4.95973 14.686 2.57011 18.0942 4.2067C18.4182 4.3627 18.6747 4.65672 18.6792 5.01674C18.6822 5.59577 18.4287 6.3113 17.6126 6.78683C16.4456 7.46486 14.536 10.057 17.0861 12.6146" stroke="white" stroke-width="1.5" stroke-linecap="round" stroke-linejoin="round"/>
</svg>
