<svg width="32" height="32" viewBox="0 0 32 32" fill="none" xmlns="http://www.w3.org/2000/svg">
<path d="M15.2 3.026C8.82667 3.43934 4 9.026 4 15.4127V24.3327C4 26.546 5.78667 28.3327 8 28.3327H9.33333C10.8 28.3327 12 27.1327 12 25.666V20.3327C12 18.866 10.8 17.666 9.33333 17.666H6.66667V15.386C6.66667 10.266 10.6133 5.81267 15.72 5.666C16.969 5.62851 18.2129 5.84222 19.3778 6.29445C20.5426 6.74668 21.6049 7.42823 22.5014 8.29867C23.398 9.16911 24.1106 10.2107 24.5971 11.3617C25.0835 12.5128 25.3339 13.7497 25.3333 14.9993V17.666H22.6667C21.2 17.666 20 18.866 20 20.3327V25.666C20 27.1327 21.2 28.3327 22.6667 28.3327H24C26.2133 28.3327 28 26.546 28 24.3327V14.9993C28 8.106 22.1867 2.57267 15.2 3.026Z" fill="black"/>
</svg>
