<svg width="11" height="10" viewBox="0 0 11 10" fill="none" xmlns="http://www.w3.org/2000/svg">
<path d="M5.73358 6.86072C6.18358 6.86072 6.59408 6.73788 6.96508 6.49222C7.33608 6.24655 7.61725 5.91938 7.80858 5.51072C7.86692 5.38572 7.86692 5.26072 7.80858 5.13572C7.75025 5.01072 7.65442 4.92322 7.52108 4.87322C7.39608 4.82322 7.27325 4.82538 7.15258 4.87972C7.03192 4.93405 6.94225 5.02355 6.88358 5.14822C6.78358 5.37322 6.62742 5.54822 6.41508 5.67322C6.20275 5.79822 5.97558 5.86072 5.73358 5.86072C5.49158 5.86072 5.26458 5.79822 5.05258 5.67322C4.84058 5.54822 4.68425 5.37322 4.58358 5.14822C4.52525 5.02322 4.43575 4.93372 4.31508 4.87972C4.19442 4.82572 4.07142 4.82355 3.94608 4.87322C3.81275 4.92322 3.71692 5.01072 3.65858 5.13572C3.60025 5.26072 3.60025 5.38572 3.65858 5.51072C3.85025 5.91905 4.13158 6.24622 4.50258 6.49222C4.87358 6.73822 5.28392 6.86105 5.73358 6.86072ZM4.35858 4.36072C4.53358 4.36072 4.68158 4.30022 4.80258 4.17922C4.92358 4.05822 4.98392 3.91038 4.98358 3.73572C4.98325 3.56105 4.92275 3.41305 4.80208 3.29172C4.68142 3.17038 4.53358 3.11005 4.35858 3.11072C4.18358 3.11138 4.03558 3.17188 3.91458 3.29222C3.79358 3.41255 3.73325 3.56038 3.73358 3.73572C3.73392 3.91105 3.79442 4.05905 3.91508 4.17972C4.03575 4.30038 4.18358 4.36072 4.35858 4.36072ZM7.10858 4.36072C7.28358 4.36072 7.43158 4.30022 7.55258 4.17922C7.67358 4.05822 7.73392 3.91038 7.73358 3.73572C7.73325 3.56105 7.67275 3.41305 7.55208 3.29172C7.43142 3.17038 7.28358 3.11005 7.10858 3.11072C6.93358 3.11138 6.78558 3.17188 6.66458 3.29222C6.54358 3.41255 6.48325 3.56038 6.48358 3.73572C6.48392 3.91105 6.54442 4.05905 6.66508 4.17972C6.78575 4.30038 6.93358 4.36072 7.10858 4.36072ZM5.73358 1.66072C6.01692 1.32738 6.35442 1.06905 6.74608 0.885718C7.13775 0.702384 7.55025 0.610718 7.98358 0.610718C8.76692 0.610718 9.42108 0.873218 9.94608 1.39822C10.4711 1.92322 10.7336 2.57738 10.7336 3.36072C10.7336 3.71072 10.6816 4.04622 10.5776 4.36722C10.4736 4.68822 10.2944 5.03405 10.0401 5.40472C9.78575 5.77538 9.44408 6.18155 9.01508 6.62322C8.58608 7.06488 8.04642 7.57738 7.39608 8.16072L6.39608 9.03572C6.20442 9.20238 5.98358 9.28572 5.73358 9.28572C5.48358 9.28572 5.26275 9.20238 5.07108 9.03572L4.07108 8.16072C3.42108 7.57738 2.88142 7.06488 2.45208 6.62322C2.02275 6.18155 1.68108 5.77538 1.42708 5.40472C1.17308 5.03405 0.993916 4.68822 0.889583 4.36722C0.78525 4.04622 0.73325 3.71072 0.733583 3.36072C0.733583 2.57738 0.996083 1.92322 1.52108 1.39822C2.04608 0.873218 2.70025 0.610718 3.48358 0.610718C3.91692 0.610718 4.32942 0.702384 4.72108 0.885718C5.11275 1.06905 5.45025 1.32738 5.73358 1.66072ZM9.73358 3.36072C9.73358 2.86072 9.56692 2.44405 9.23358 2.11072C8.90025 1.77738 8.48358 1.61072 7.98358 1.61072C7.69192 1.61072 7.41075 1.67538 7.14008 1.80472C6.86942 1.93405 6.64225 2.11522 6.45858 2.34822C6.34192 2.48988 6.22325 2.59822 6.10258 2.67322C5.98192 2.74822 5.85892 2.78572 5.73358 2.78572C5.60825 2.78572 5.48325 2.74822 5.35858 2.67322C5.23392 2.59822 5.11308 2.48572 4.99608 2.33572C4.81275 2.11072 4.58775 1.93372 4.32108 1.80472C4.05442 1.67572 3.77525 1.61105 3.48358 1.61072C2.98358 1.61072 2.56692 1.77738 2.23358 2.11072C1.90025 2.44405 1.73358 2.86072 1.73358 3.36072C1.73358 3.64405 1.79192 3.92955 1.90858 4.21722C2.02525 4.50488 2.23358 4.83188 2.53358 5.19822C2.83358 5.56455 3.24192 5.99372 3.75858 6.48572C4.27525 6.97772 4.93358 7.56938 5.73358 8.26072C6.53358 7.56905 7.19192 6.97738 7.70858 6.48572C8.22525 5.99405 8.63358 5.56488 8.93358 5.19822C9.23358 4.83155 9.44192 4.50438 9.55858 4.21672C9.67525 3.92905 9.73358 3.64372 9.73358 3.36072Z" fill="white"/>
</svg>
