<svg width="33" height="32" viewBox="0 0 33 32" fill="none" xmlns="http://www.w3.org/2000/svg">
<path d="M16.5 28.8C19.8948 28.8 23.1505 27.4514 25.551 25.051C27.9514 22.6505 29.3 19.3948 29.3 16C29.3 12.6052 27.9514 9.3495 25.551 6.94903C23.1505 4.54857 19.8948 3.2 16.5 3.2C13.1052 3.2 9.8495 4.54857 7.44903 6.94903C5.04857 9.3495 3.7 12.6052 3.7 16C3.7 19.3948 5.04857 22.6505 7.44903 25.051C9.8495 27.4514 13.1052 28.8 16.5 28.8ZM16.5 32C7.6632 32 0.5 24.8368 0.5 16C0.5 7.1632 7.6632 0 16.5 0C25.3368 0 32.5 7.1632 32.5 16C32.5 24.8368 25.3368 32 16.5 32ZM14.9 13H18.1V25.6H14.9V13ZM14.9 6.4H18.1V10H14.9V6.4Z" fill="white"/>
</svg>
