<svg width="66" height="66" viewBox="0 0 66 66" fill="none" xmlns="http://www.w3.org/2000/svg">
<path d="M60.4794 3L48.5517 5.40061L56.8677 16.2957L62.8467 15.0646L60.4794 3ZM39.6287 7.18567L33.6497 8.38597L41.9961 19.2503L47.9447 18.05L39.6287 7.18567ZM24.7571 10.1403L18.7781 11.4021L27.1244 22.2664L33.0731 21.0661L24.7571 10.1403ZM9.85512 13.218L6.8808 13.8027C5.30374 14.1222 3.91619 15.0634 3.02279 16.4194C2.1294 17.7754 1.8032 19.4356 2.1158 21.0353L3.29946 27.0676L18.1711 24.0822L9.85512 13.218ZM3.29946 27.0676V57.8446C3.29946 59.4771 3.93899 61.0428 5.07734 62.1971C6.2157 63.3515 7.75964 64 9.36952 64H57.9299C61.2988 64 64 61.2608 64 57.8446V27.0676H3.29946Z" fill="white"/>
<path d="M12.0972 57.275C11.0889 57.275 10.1468 57.0917 9.27083 56.725C8.39491 56.3481 7.62083 55.8338 6.94861 55.1819C6.28657 54.5301 5.76713 53.7713 5.39028 52.9056C5.01343 52.0398 4.825 51.113 4.825 50.125C4.825 49.137 5.01343 48.2102 5.39028 47.3444C5.76713 46.4787 6.28657 45.7199 6.94861 45.0681C7.62083 44.4162 8.39491 43.9069 9.27083 43.5403C10.1468 43.1634 11.0889 42.975 12.0972 42.975C13.0037 42.975 13.8593 43.1227 14.6639 43.4181C15.4685 43.7134 16.1866 44.131 16.8181 44.6708L16.0389 47.8792C15.662 47.2477 15.1426 46.7181 14.4806 46.2903C13.8185 45.8523 13.0546 45.6333 12.1889 45.6333C11.3639 45.6333 10.6153 45.837 9.94306 46.2444C9.28102 46.6417 8.75648 47.1815 8.36944 47.8639C7.98241 48.5361 7.78889 49.2898 7.78889 50.125C7.78889 50.95 7.98241 51.7037 8.36944 52.3861C8.75648 53.0685 9.28102 53.6134 9.94306 54.0208C10.6153 54.4181 11.3639 54.6167 12.1889 54.6167C13.0444 54.6167 13.8032 54.4028 14.4653 53.975C15.1375 53.537 15.662 53.0023 16.0389 52.3708L16.8181 55.5792C16.1764 56.1088 15.4532 56.5264 14.6486 56.8319C13.8542 57.1273 13.0037 57.275 12.0972 57.275ZM17.4577 57V42.3333H20.1161V57H17.4577ZM25.3987 57.2444C24.5534 57.2444 23.7844 57.0255 23.0918 56.5875C22.3992 56.1495 21.8441 55.569 21.4265 54.8458C21.0191 54.1125 20.8154 53.3028 20.8154 52.4167C20.8154 51.5306 21.0191 50.7208 21.4265 49.9875C21.8441 49.2542 22.3992 48.6736 23.0918 48.2458C23.7844 47.8079 24.5534 47.5889 25.3987 47.5889C25.9895 47.5889 26.5293 47.6958 27.0182 47.9097C27.5071 48.1134 27.9246 48.3986 28.2709 48.7653V47.8333H30.5626V57H28.2709V56.0681C27.9246 56.4347 27.5071 56.725 27.0182 56.9389C26.5293 57.1426 25.9895 57.2444 25.3987 57.2444ZM25.7196 54.9069C26.1677 54.9069 26.5751 54.7949 26.9418 54.5708C27.3084 54.3468 27.5987 54.0463 27.8126 53.6694C28.0367 53.2926 28.1487 52.875 28.1487 52.4167C28.1487 51.9583 28.0367 51.5407 27.8126 51.1639C27.5987 50.787 27.3084 50.4866 26.9418 50.2625C26.5751 50.0384 26.1677 49.9264 25.7196 49.9264C25.2714 49.9264 24.864 50.0384 24.4973 50.2625C24.1307 50.4866 23.8353 50.787 23.6112 51.1639C23.3973 51.5407 23.2904 51.9583 23.2904 52.4167C23.2904 52.875 23.3973 53.2926 23.6112 53.6694C23.8353 54.0463 24.1307 54.3468 24.4973 54.5708C24.864 54.7949 25.2714 54.9069 25.7196 54.9069ZM31.6945 61.5833V47.8333H33.9862V48.7347C34.3427 48.3782 34.7602 48.0981 35.239 47.8944C35.7278 47.6907 36.2626 47.5889 36.8431 47.5889C37.6987 47.5889 38.4727 47.8079 39.1653 48.2458C39.8579 48.6736 40.4079 49.2542 40.8153 49.9875C41.2329 50.7208 41.4417 51.5306 41.4417 52.4167C41.4417 53.3028 41.2329 54.1125 40.8153 54.8458C40.4079 55.569 39.8579 56.1495 39.1653 56.5875C38.4727 57.0255 37.6987 57.2444 36.8431 57.2444C36.3542 57.2444 35.901 57.1681 35.4834 57.0153C35.0658 56.8727 34.689 56.6741 34.3528 56.4194V61.5833H31.6945ZM36.5376 54.9069C36.9857 54.9069 37.3931 54.7949 37.7598 54.5708C38.1265 54.3468 38.4167 54.0463 38.6306 53.6694C38.8547 53.2926 38.9667 52.875 38.9667 52.4167C38.9667 51.9583 38.8547 51.5407 38.6306 51.1639C38.4167 50.787 38.1265 50.4866 37.7598 50.2625C37.3931 50.0384 36.9857 49.9264 36.5376 49.9264C36.0894 49.9264 35.682 50.0384 35.3153 50.2625C34.9487 50.4866 34.6533 50.787 34.4292 51.1639C34.2153 51.5407 34.1084 51.9583 34.1084 52.4167C34.1084 52.875 34.2153 53.2926 34.4292 53.6694C34.6533 54.0463 34.9487 54.3468 35.3153 54.5708C35.682 54.7949 36.0894 54.9069 36.5376 54.9069ZM42.1153 61.5833V47.8333H44.407V48.7347C44.7634 48.3782 45.181 48.0981 45.6597 47.8944C46.1486 47.6907 46.6833 47.5889 47.2639 47.5889C48.1195 47.5889 48.8935 47.8079 49.5861 48.2458C50.2787 48.6736 50.8287 49.2542 51.2361 49.9875C51.6537 50.7208 51.8625 51.5306 51.8625 52.4167C51.8625 53.3028 51.6537 54.1125 51.2361 54.8458C50.8287 55.569 50.2787 56.1495 49.5861 56.5875C48.8935 57.0255 48.1195 57.2444 47.2639 57.2444C46.775 57.2444 46.3218 57.1681 45.9042 57.0153C45.4866 56.8727 45.1097 56.6741 44.7736 56.4194V61.5833H42.1153ZM46.9583 54.9069C47.4065 54.9069 47.8139 54.7949 48.1806 54.5708C48.5472 54.3468 48.8375 54.0463 49.0514 53.6694C49.2755 53.2926 49.3875 52.875 49.3875 52.4167C49.3875 51.9583 49.2755 51.5407 49.0514 51.1639C48.8375 50.787 48.5472 50.4866 48.1806 50.2625C47.8139 50.0384 47.4065 49.9264 46.9583 49.9264C46.5102 49.9264 46.1028 50.0384 45.7361 50.2625C45.3695 50.4866 45.0741 50.787 44.85 51.1639C44.6361 51.5407 44.5292 51.9583 44.5292 52.4167C44.5292 52.875 44.6361 53.2926 44.85 53.6694C45.0741 54.0463 45.3695 54.3468 45.7361 54.5708C46.1028 54.7949 46.5102 54.9069 46.9583 54.9069ZM57.0277 57.3056C56.1213 57.3056 55.2912 57.0866 54.5375 56.6486C53.7838 56.2106 53.1828 55.6199 52.7347 54.8764C52.2967 54.1329 52.0777 53.313 52.0777 52.4167C52.0777 51.5102 52.2967 50.6903 52.7347 49.9569C53.1828 49.2134 53.7838 48.6227 54.5375 48.1847C55.2912 47.7468 56.1213 47.5278 57.0277 47.5278C57.9444 47.5278 58.7745 47.7468 59.518 48.1847C60.2717 48.6227 60.8675 49.2134 61.3055 49.9569C61.7537 50.6903 61.9777 51.5102 61.9777 52.4167C61.9777 53.313 61.7537 54.1329 61.3055 54.8764C60.8675 55.6199 60.2717 56.2106 59.518 56.6486C58.7745 57.0866 57.9444 57.3056 57.0277 57.3056ZM57.0277 54.9222C57.4861 54.9222 57.8986 54.8102 58.2652 54.5861C58.6421 54.362 58.9375 54.0616 59.1513 53.6847C59.3754 53.2977 59.4875 52.875 59.4875 52.4167C59.4875 51.9481 59.3754 51.5255 59.1513 51.1486C58.9375 50.7718 58.6421 50.4713 58.2652 50.2472C57.8986 50.0231 57.4861 49.9111 57.0277 49.9111C56.5694 49.9111 56.1518 50.0231 55.775 50.2472C55.4083 50.4713 55.1129 50.7718 54.8888 51.1486C54.675 51.5255 54.568 51.9481 54.568 52.4167C54.568 52.875 54.675 53.2977 54.8888 53.6847C55.1129 54.0616 55.4083 54.362 55.775 54.5861C56.1518 54.8102 56.5694 54.9222 57.0277 54.9222Z" fill="black"/>
</svg>
