<svg width="110" height="110" viewBox="0 0 110 110" fill="none" xmlns="http://www.w3.org/2000/svg">
<path d="M86 36.0001H71.6401L76.5146 46.7421H86V36.0001ZM64.9855 36.0001H56.6673L61.5085 46.7421H70.4755L64.9855 36.0001ZM50.4287 36.0001L41.2787 36L46.5635 46.7421H55.5L50.4287 36.0001ZM34.9237 36.0001H31.1C29.2173 36.0001 27.6833 37.079 26.7867 38.1169C25.8901 39.1548 25 39.8105 25 42.7742V46.7421H40.555L34.9237 36.0001ZM25 46.7421V77.7903C25 79.4373 25.6427 81.0167 26.7867 82.1812C27.9306 83.3457 29.4822 84 31.1 84H79.9C83.2855 84 86 81.2367 86 77.7903V46.7421H25Z" fill="white"/>
<path d="M34.2528 77.5238C33.2472 77.5238 32.3076 77.3333 31.434 76.9524C30.5604 76.5608 29.7884 76.0265 29.1179 75.3492C28.4577 74.6719 27.9396 73.8836 27.5638 72.9841C27.1879 72.0847 27 71.1217 27 70.0952C27 69.0687 27.1879 68.1058 27.5638 67.2063C27.9396 66.3068 28.4577 65.5185 29.1179 64.8412C29.7884 64.164 30.5604 63.6349 31.434 63.254C32.3076 62.8624 33.2472 62.6666 34.2528 62.6666C35.1568 62.6666 36.0102 62.82 36.8126 63.1269C37.6151 63.4338 38.3312 63.8677 38.961 64.4286L38.1839 67.7618C37.8081 67.1058 37.29 66.5555 36.6297 66.1111C35.9695 65.6561 35.2076 65.4286 34.3442 65.4286C33.5214 65.4286 32.7748 65.6402 32.1044 66.0635C31.4441 66.4761 30.921 67.037 30.535 67.746C30.149 68.4444 29.956 69.2275 29.956 70.0952C29.956 70.9524 30.149 71.7354 30.535 72.4444C30.921 73.1534 31.4441 73.7196 32.1044 74.1429C32.7748 74.5555 33.5214 74.7618 34.3442 74.7618C35.1975 74.7618 35.9542 74.5397 36.6146 74.0952C37.2849 73.6402 37.8081 73.0847 38.1839 72.4286L38.961 75.7618C38.3211 76.3122 37.5998 76.746 36.7973 77.0635C36.005 77.3704 35.1568 77.5238 34.2528 77.5238ZM39.599 77.2381V62H42.2502V77.2381H39.599ZM47.5188 77.492C46.6756 77.492 45.9087 77.2645 45.218 76.8095C44.5272 76.3545 43.9736 75.7513 43.5572 75C43.1508 74.2381 42.9476 73.3968 42.9476 72.4761C42.9476 71.5555 43.1508 70.7143 43.5572 69.9524C43.9736 69.1904 44.5272 68.5873 45.218 68.1429C45.9087 67.6878 46.6756 67.4603 47.5188 67.4603C48.1079 67.4603 48.6463 67.5714 49.1339 67.7936C49.6215 68.0053 50.0379 68.3015 50.3833 68.6826V67.7143H52.6689V77.2381H50.3833V76.2698C50.0379 76.6507 49.6215 76.9524 49.1339 77.1746C48.6463 77.3862 48.1079 77.492 47.5188 77.492ZM47.8388 75.0635C48.2857 75.0635 48.692 74.9471 49.0577 74.7143C49.4233 74.4815 49.7129 74.1693 49.9262 73.7778C50.1497 73.3862 50.2614 72.9523 50.2614 72.4761C50.2614 72 50.1497 71.5661 49.9262 71.1746C49.7129 70.783 49.4233 70.4709 49.0577 70.2381C48.692 70.0053 48.2857 69.8889 47.8388 69.8889C47.3917 69.8889 46.9855 70.0053 46.6198 70.2381C46.2541 70.4709 45.9595 70.783 45.736 71.1746C45.5227 71.5661 45.416 72 45.416 72.4761C45.416 72.9523 45.5227 73.3862 45.736 73.7778C45.9595 74.1693 46.2541 74.4815 46.6198 74.7143C46.9855 74.9471 47.3917 75.0635 47.8388 75.0635ZM53.7977 82V67.7143H56.0833V68.6507C56.4388 68.2804 56.8553 67.9894 57.3327 67.7778C57.8202 67.5661 58.3536 67.4603 58.9326 67.4603C59.7858 67.4603 60.5578 67.6878 61.2486 68.1429C61.9394 68.5873 62.4879 69.1904 62.8941 69.9524C63.3107 70.7143 63.5189 71.5555 63.5189 72.4761C63.5189 73.3968 63.3107 74.2381 62.8941 75C62.4879 75.7513 61.9394 76.3545 61.2486 76.8095C60.5578 77.2645 59.7858 77.492 58.9326 77.492C58.445 77.492 57.993 77.4127 57.5764 77.254C57.16 77.1058 56.7842 76.8994 56.4489 76.6349V82H53.7977ZM58.6278 75.0635C59.0748 75.0635 59.4811 74.9471 59.8468 74.7143C60.2125 74.4815 60.502 74.1693 60.7153 73.7778C60.9388 73.3862 61.0505 72.9523 61.0505 72.4761C61.0505 72 60.9388 71.5661 60.7153 71.1746C60.502 70.783 60.2125 70.4709 59.8468 70.2381C59.4811 70.0053 59.0748 69.8889 58.6278 69.8889C58.1809 69.8889 57.7746 70.0053 57.4088 70.2381C57.0432 70.4709 56.7486 70.783 56.5251 71.1746C56.3118 71.5661 56.2051 72 56.2051 72.4761C56.2051 72.9523 56.3118 73.3862 56.5251 73.7778C56.7486 74.1693 57.0432 74.4815 57.4088 74.7143C57.7746 74.9471 58.1809 75.0635 58.6278 75.0635ZM64.1906 82V67.7143H66.4762V68.6507C66.8318 68.2804 67.2482 67.9894 67.7256 67.7778C68.2132 67.5661 68.7465 67.4603 69.3255 67.4603C70.1788 67.4603 70.9508 67.6878 71.6415 68.1429C72.3322 68.5873 72.8808 69.1904 73.2871 69.9524C73.7036 70.7143 73.9118 71.5555 73.9118 72.4761C73.9118 73.3968 73.7036 74.2381 73.2871 75C72.8808 75.7513 72.3322 76.3545 71.6415 76.8095C70.9508 77.2645 70.1788 77.492 69.3255 77.492C68.8379 77.492 68.3859 77.4127 67.9694 77.254C67.5529 77.1058 67.1771 76.8994 66.8419 76.6349V82H64.1906ZM69.0207 75.0635C69.4677 75.0635 69.8741 74.9471 70.2397 74.7143C70.6054 74.4815 70.8949 74.1693 71.1083 73.7778C71.3317 73.3862 71.4435 72.9523 71.4435 72.4761C71.4435 72 71.3317 71.5661 71.1083 71.1746C70.8949 70.783 70.6054 70.4709 70.2397 70.2381C69.8741 70.0053 69.4677 69.8889 69.0207 69.8889C68.5738 69.8889 68.1675 70.0053 67.8018 70.2381C67.4362 70.4709 67.1415 70.783 66.9181 71.1746C66.7047 71.5661 66.5981 72 66.5981 72.4761C66.5981 72.9523 66.7047 73.3862 66.9181 73.7778C67.1415 74.1693 67.4362 74.4815 67.8018 74.7143C68.1675 74.9471 68.5738 75.0635 69.0207 75.0635ZM79.0632 77.5555C78.1592 77.5555 77.3313 77.328 76.5796 76.873C75.8279 76.4179 75.2287 75.8042 74.7816 75.0317C74.3448 74.2593 74.1265 73.4074 74.1265 72.4761C74.1265 71.5343 74.3448 70.6825 74.7816 69.9206C75.2287 69.1481 75.8279 68.5343 76.5796 68.0793C77.3313 67.6244 78.1592 67.3968 79.0632 67.3968C79.9775 67.3968 80.8054 67.6244 81.5469 68.0793C82.2985 68.5343 82.8928 69.1481 83.3296 69.9206C83.7765 70.6825 84 71.5343 84 72.4761C84 73.4074 83.7765 74.2593 83.3296 75.0317C82.8928 75.8042 82.2985 76.4179 81.5469 76.873C80.8054 77.328 79.9775 77.5555 79.0632 77.5555ZM79.0632 75.0793C79.5204 75.0793 79.9318 74.9629 80.2974 74.7301C80.6733 74.4973 80.9679 74.1851 81.1812 73.7936C81.4047 73.3915 81.5164 72.9523 81.5164 72.4761C81.5164 71.9894 81.4047 71.5502 81.1812 71.1587C80.9679 70.7672 80.6733 70.455 80.2974 70.2222C79.9318 69.9894 79.5204 69.873 79.0632 69.873C78.6062 69.873 78.1897 69.9894 77.8138 70.2222C77.4482 70.455 77.1536 70.7672 76.9301 71.1587C76.7168 71.5502 76.6101 71.9894 76.6101 72.4761C76.6101 72.9523 76.7168 73.3915 76.9301 73.7936C77.1536 74.1851 77.4482 74.4973 77.8138 74.7301C78.1897 74.9629 78.6062 75.0793 79.0632 75.0793Z" fill="black"/>
<path d="M18 30.35L16.5 28.85L17.2 28.15L18.7 29.65L18 30.35ZM16.2 24.35L15.5 23.65L17 22.15L17.7 22.85L16.2 24.35ZM10.5 24.35L9 22.85L9.7 22.15L11.2 23.65L10.5 24.35ZM8.7 30.35L8 29.65L9.5 28.15L10.2 28.85L8.7 30.35ZM10.2625 31.5L11.075 27.9875L8.35 25.625L11.95 25.3125L13.35 22L14.75 25.3125L18.35 25.625L15.625 27.9875L16.4375 31.5L13.35 29.6375L10.2625 31.5Z" fill="white"/>
<path d="M65 14.35L63.5 12.85L64.2 12.15L65.7 13.65L65 14.35ZM63.2 8.35L62.5 7.65L64 6.15L64.7 6.85L63.2 8.35ZM57.5 8.35L56 6.85L56.7 6.15L58.2 7.65L57.5 8.35ZM55.7 14.35L55 13.65L56.5 12.15L57.2 12.85L55.7 14.35ZM57.2625 15.5L58.075 11.9875L55.35 9.625L58.95 9.3125L60.35 6L61.75 9.3125L65.35 9.625L62.625 11.9875L63.4375 15.5L60.35 13.6375L57.2625 15.5Z" fill="white"/>
<path d="M106 39.35L104.5 37.85L105.2 37.15L106.7 38.65L106 39.35ZM104.2 33.35L103.5 32.65L105 31.15L105.7 31.85L104.2 33.35ZM98.5 33.35L97 31.85L97.7 31.15L99.2 32.65L98.5 33.35ZM96.7 39.35L96 38.65L97.5 37.15L98.2 37.85L96.7 39.35ZM98.2625 40.5L99.075 36.9875L96.35 34.625L99.95 34.3125L101.35 31L102.75 34.3125L106.35 34.625L103.625 36.9875L104.438 40.5L101.35 38.6375L98.2625 40.5Z" fill="white"/>
</svg>
