<svg width="66" height="66" viewBox="0 0 66 66" fill="none" xmlns="http://www.w3.org/2000/svg">
<path d="M64 16.0001H49.6401L54.5146 26.7421H64V16.0001ZM42.9855 16.0001H34.6673L39.5085 26.7421H48.4755L42.9855 16.0001ZM28.4287 16.0001L19.2787 16L24.5635 26.7421H33.5L28.4287 16.0001ZM12.9237 16.0001H9.09998C7.21733 16.0001 5.68329 17.079 4.78667 18.1169C3.89005 19.1548 3 19.8105 3 22.7742V26.7421H18.555L12.9237 16.0001ZM3 26.7421V57.7903C3 59.4373 3.64268 61.0167 4.78667 62.1812C5.93059 63.3457 7.48218 64 9.09998 64H57.9C61.2855 64 64 61.2367 64 57.7903V26.7421H3Z" fill="white"/>
<path d="M12.2528 57.5238C11.2472 57.5238 10.3076 57.3333 9.43398 56.9524C8.56039 56.5608 7.78839 56.0265 7.11792 55.3492C6.45766 54.6719 5.93959 53.8836 5.5638 52.9841C5.18793 52.0847 5 51.1217 5 50.0952C5 49.0687 5.18793 48.1058 5.5638 47.2063C5.93959 46.3068 6.45766 45.5185 7.11792 44.8412C7.78839 44.164 8.56039 43.6349 9.43398 43.254C10.3076 42.8624 11.2472 42.6666 12.2528 42.6666C13.1568 42.6666 14.0102 42.82 14.8126 43.1269C15.6151 43.4338 16.3312 43.8677 16.961 44.4286L16.1839 47.7618C15.8081 47.1058 15.29 46.5555 14.6297 46.1111C13.9695 45.6561 13.2076 45.4286 12.3442 45.4286C11.5214 45.4286 10.7748 45.6402 10.1044 46.0635C9.44411 46.4761 8.92098 47.037 8.53498 47.746C8.14899 48.4444 7.95599 49.2275 7.95599 50.0952C7.95599 50.9524 8.14899 51.7354 8.53498 52.4444C8.92098 53.1534 9.44411 53.7196 10.1044 54.1429C10.7748 54.5555 11.5214 54.7618 12.3442 54.7618C13.1975 54.7618 13.9542 54.5397 14.6146 54.0952C15.2849 53.6402 15.8081 53.0847 16.1839 52.4286L16.961 55.7618C16.3211 56.3122 15.5998 56.746 14.7973 57.0635C14.005 57.3704 13.1568 57.5238 12.2528 57.5238ZM17.599 57.2381V42H20.2502V57.2381H17.599ZM25.5188 57.492C24.6756 57.492 23.9087 57.2645 23.218 56.8095C22.5272 56.3545 21.9736 55.7513 21.5572 55C21.1508 54.2381 20.9476 53.3968 20.9476 52.4761C20.9476 51.5555 21.1508 50.7143 21.5572 49.9524C21.9736 49.1904 22.5272 48.5873 23.218 48.1429C23.9087 47.6878 24.6756 47.4603 25.5188 47.4603C26.1079 47.4603 26.6463 47.5714 27.1339 47.7936C27.6215 48.0053 28.0379 48.3015 28.3833 48.6826V47.7143H30.6689V57.2381H28.3833V56.2698C28.0379 56.6507 27.6215 56.9524 27.1339 57.1746C26.6463 57.3862 26.1079 57.492 25.5188 57.492ZM25.8388 55.0635C26.2857 55.0635 26.692 54.9471 27.0577 54.7143C27.4233 54.4815 27.7129 54.1693 27.9262 53.7778C28.1497 53.3862 28.2614 52.9523 28.2614 52.4761C28.2614 52 28.1497 51.5661 27.9262 51.1746C27.7129 50.783 27.4233 50.4709 27.0577 50.2381C26.692 50.0053 26.2857 49.8889 25.8388 49.8889C25.3917 49.8889 24.9855 50.0053 24.6198 50.2381C24.2541 50.4709 23.9595 50.783 23.736 51.1746C23.5227 51.5661 23.416 52 23.416 52.4761C23.416 52.9523 23.5227 53.3862 23.736 53.7778C23.9595 54.1693 24.2541 54.4815 24.6198 54.7143C24.9855 54.9471 25.3917 55.0635 25.8388 55.0635ZM31.7977 62V47.7143H34.0833V48.6507C34.4388 48.2804 34.8553 47.9894 35.3327 47.7778C35.8202 47.5661 36.3536 47.4603 36.9326 47.4603C37.7858 47.4603 38.5578 47.6878 39.2486 48.1429C39.9394 48.5873 40.4879 49.1904 40.8941 49.9524C41.3107 50.7143 41.5189 51.5555 41.5189 52.4761C41.5189 53.3968 41.3107 54.2381 40.8941 55C40.4879 55.7513 39.9394 56.3545 39.2486 56.8095C38.5578 57.2645 37.7858 57.492 36.9326 57.492C36.445 57.492 35.993 57.4127 35.5764 57.254C35.16 57.1058 34.7842 56.8994 34.4489 56.6349V62H31.7977ZM36.6278 55.0635C37.0748 55.0635 37.4811 54.9471 37.8468 54.7143C38.2125 54.4815 38.502 54.1693 38.7153 53.7778C38.9388 53.3862 39.0505 52.9523 39.0505 52.4761C39.0505 52 38.9388 51.5661 38.7153 51.1746C38.502 50.783 38.2125 50.4709 37.8468 50.2381C37.4811 50.0053 37.0748 49.8889 36.6278 49.8889C36.1809 49.8889 35.7746 50.0053 35.4088 50.2381C35.0432 50.4709 34.7486 50.783 34.5251 51.1746C34.3118 51.5661 34.2051 52 34.2051 52.4761C34.2051 52.9523 34.3118 53.3862 34.5251 53.7778C34.7486 54.1693 35.0432 54.4815 35.4088 54.7143C35.7746 54.9471 36.1809 55.0635 36.6278 55.0635ZM42.1906 62V47.7143H44.4762V48.6507C44.8318 48.2804 45.2482 47.9894 45.7256 47.7778C46.2132 47.5661 46.7465 47.4603 47.3255 47.4603C48.1788 47.4603 48.9508 47.6878 49.6415 48.1429C50.3322 48.5873 50.8808 49.1904 51.2871 49.9524C51.7036 50.7143 51.9118 51.5555 51.9118 52.4761C51.9118 53.3968 51.7036 54.2381 51.2871 55C50.8808 55.7513 50.3322 56.3545 49.6415 56.8095C48.9508 57.2645 48.1788 57.492 47.3255 57.492C46.8379 57.492 46.3859 57.4127 45.9694 57.254C45.5529 57.1058 45.1771 56.8994 44.8419 56.6349V62H42.1906ZM47.0207 55.0635C47.4677 55.0635 47.8741 54.9471 48.2397 54.7143C48.6054 54.4815 48.8949 54.1693 49.1083 53.7778C49.3317 53.3862 49.4435 52.9523 49.4435 52.4761C49.4435 52 49.3317 51.5661 49.1083 51.1746C48.8949 50.783 48.6054 50.4709 48.2397 50.2381C47.8741 50.0053 47.4677 49.8889 47.0207 49.8889C46.5738 49.8889 46.1675 50.0053 45.8018 50.2381C45.4362 50.4709 45.1415 50.783 44.9181 51.1746C44.7047 51.5661 44.5981 52 44.5981 52.4761C44.5981 52.9523 44.7047 53.3862 44.9181 53.7778C45.1415 54.1693 45.4362 54.4815 45.8018 54.7143C46.1675 54.9471 46.5738 55.0635 47.0207 55.0635ZM57.0632 57.5555C56.1592 57.5555 55.3313 57.328 54.5796 56.873C53.8279 56.4179 53.2287 55.8042 52.7816 55.0317C52.3448 54.2593 52.1265 53.4074 52.1265 52.4761C52.1265 51.5343 52.3448 50.6825 52.7816 49.9206C53.2287 49.1481 53.8279 48.5343 54.5796 48.0793C55.3313 47.6244 56.1592 47.3968 57.0632 47.3968C57.9775 47.3968 58.8054 47.6244 59.5469 48.0793C60.2985 48.5343 60.8928 49.1481 61.3296 49.9206C61.7765 50.6825 62 51.5343 62 52.4761C62 53.4074 61.7765 54.2593 61.3296 55.0317C60.8928 55.8042 60.2985 56.4179 59.5469 56.873C58.8054 57.328 57.9775 57.5555 57.0632 57.5555ZM57.0632 55.0793C57.5204 55.0793 57.9318 54.9629 58.2974 54.7301C58.6733 54.4973 58.9679 54.1851 59.1812 53.7936C59.4047 53.3915 59.5164 52.9523 59.5164 52.4761C59.5164 51.9894 59.4047 51.5502 59.1812 51.1587C58.9679 50.7672 58.6733 50.455 58.2974 50.2222C57.9318 49.9894 57.5204 49.873 57.0632 49.873C56.6062 49.873 56.1897 49.9894 55.8138 50.2222C55.4482 50.455 55.1536 50.7672 54.9301 51.1587C54.7168 51.5502 54.6101 51.9894 54.6101 52.4761C54.6101 52.9523 54.7168 53.3915 54.9301 53.7936C55.1536 54.1851 55.4482 54.4973 55.8138 54.7301C56.1897 54.9629 56.6062 55.0793 57.0632 55.0793Z" fill="black"/>
</svg>
