<svg width="85" height="27" viewBox="0 0 85 27" fill="none" xmlns="http://www.w3.org/2000/svg">
<path d="M34.3611 22.25C33.4537 22.25 32.6019 22.0833 31.8056 21.75C31.0093 21.4074 30.3102 20.9398 29.7083 20.3472C29.1065 19.7546 28.6343 19.0648 28.2917 18.2778C27.9583 17.4907 27.7917 16.6481 27.7917 15.75C27.7917 14.8519 27.9583 14.0093 28.2917 13.2222C28.6343 12.4352 29.1065 11.7454 29.7083 11.1528C30.3102 10.5602 31.0093 10.0972 31.8056 9.76389C32.6019 9.4213 33.4537 9.25 34.3611 9.25C35.213 9.25 36.0139 9.39815 36.7639 9.69444C37.5231 9.99074 38.1944 10.4074 38.7778 10.9444L38.1944 13.3611C37.8148 12.7315 37.2917 12.2176 36.625 11.8194C35.9676 11.412 35.2269 11.2083 34.4028 11.2083C33.5694 11.2083 32.8148 11.412 32.1389 11.8194C31.4722 12.2269 30.9398 12.7731 30.5417 13.4583C30.1528 14.1435 29.9583 14.9074 29.9583 15.75C29.9583 16.5833 30.1528 17.3472 30.5417 18.0417C30.9398 18.7269 31.4722 19.2731 32.1389 19.6806C32.8148 20.088 33.5694 20.2917 34.4028 20.2917C35.2269 20.2917 35.9676 20.088 36.625 19.6806C37.2917 19.2731 37.8148 18.7593 38.1944 18.1389L38.7778 20.5556C38.1944 21.0833 37.5231 21.5 36.7639 21.8056C36.0139 22.1019 35.213 22.25 34.3611 22.25ZM40.424 22V8.66667H42.3824V22H40.424ZM48.3012 22.1667C47.542 22.1667 46.8475 21.9722 46.2179 21.5833C45.5883 21.1944 45.0836 20.6713 44.704 20.0139C44.3336 19.3565 44.1484 18.6296 44.1484 17.8333C44.1484 17.037 44.3336 16.3102 44.704 15.6528C45.0836 14.9954 45.5883 14.4722 46.2179 14.0833C46.8475 13.6944 47.542 13.5 48.3012 13.5C48.8568 13.5 49.3707 13.6019 49.8429 13.8056C50.3244 14 50.7364 14.2778 51.079 14.6389V13.6667H52.8151V22H51.079V21.0278C50.7364 21.3796 50.3244 21.6574 49.8429 21.8611C49.3707 22.0648 48.8568 22.1667 48.3012 22.1667ZM48.5512 20.4167C49.0142 20.4167 49.4355 20.3009 49.8151 20.0694C50.204 19.838 50.5095 19.5278 50.7318 19.1389C50.9633 18.75 51.079 18.3148 51.079 17.8333C51.079 17.3611 50.9633 16.9306 50.7318 16.5417C50.5095 16.1435 50.2086 15.8287 49.829 15.5972C49.4494 15.3657 49.0234 15.25 48.5512 15.25C48.0883 15.25 47.6623 15.3657 47.2734 15.5972C46.8938 15.8287 46.5883 16.1389 46.3568 16.5278C46.1345 16.9167 46.0234 17.3519 46.0234 17.8333C46.0234 18.3056 46.1345 18.7407 46.3568 19.1389C46.5883 19.5278 46.8938 19.838 47.2734 20.0694C47.6531 20.3009 48.079 20.4167 48.5512 20.4167ZM55.0586 26.1667V13.6667H56.7947V14.625C57.1466 14.2731 57.5586 14 58.0308 13.8056C58.503 13.6019 59.0123 13.5 59.5586 13.5C60.3271 13.5 61.0262 13.6944 61.6558 14.0833C62.2854 14.4722 62.7854 14.9954 63.1558 15.6528C63.5354 16.3102 63.7253 17.037 63.7253 17.8333C63.7253 18.6296 63.5354 19.3565 63.1558 20.0139C62.7854 20.6713 62.2854 21.1944 61.6558 21.5833C61.0262 21.9722 60.3271 22.1667 59.5586 22.1667C59.0679 22.1667 58.6049 22.088 58.1697 21.9306C57.7438 21.7639 57.3595 21.537 57.0169 21.25V26.1667H55.0586ZM59.3225 20.4167C59.7854 20.4167 60.2067 20.3009 60.5864 20.0694C60.9753 19.838 61.2808 19.5278 61.503 19.1389C61.7345 18.75 61.8503 18.3148 61.8503 17.8333C61.8503 17.3611 61.7345 16.9306 61.503 16.5417C61.2808 16.1435 60.9799 15.8287 60.6003 15.5972C60.2206 15.3657 59.7947 15.25 59.3225 15.25C58.8595 15.25 58.4336 15.3657 58.0447 15.5972C57.6651 15.8287 57.3595 16.1389 57.128 16.5278C56.9058 16.9167 56.7947 17.3519 56.7947 17.8333C56.7947 18.3056 56.9058 18.7407 57.128 19.1389C57.3595 19.5278 57.6651 19.838 58.0447 20.0694C58.4243 20.3009 58.8503 20.4167 59.3225 20.4167ZM65.4688 26.1667V13.6667H67.2049V14.625C67.5567 14.2731 67.9688 14 68.441 13.8056C68.9132 13.6019 69.4225 13.5 69.9688 13.5C70.7373 13.5 71.4363 13.6944 72.066 14.0833C72.6956 14.4722 73.1956 14.9954 73.566 15.6528C73.9456 16.3102 74.1354 17.037 74.1354 17.8333C74.1354 18.6296 73.9456 19.3565 73.566 20.0139C73.1956 20.6713 72.6956 21.1944 72.066 21.5833C71.4363 21.9722 70.7373 22.1667 69.9688 22.1667C69.478 22.1667 69.015 22.088 68.5799 21.9306C68.1539 21.7639 67.7697 21.537 67.4271 21.25V26.1667H65.4688ZM69.7326 20.4167C70.1956 20.4167 70.6169 20.3009 70.9965 20.0694C71.3854 19.838 71.691 19.5278 71.9132 19.1389C72.1447 18.75 72.2604 18.3148 72.2604 17.8333C72.2604 17.3611 72.1447 16.9306 71.9132 16.5417C71.691 16.1435 71.39 15.8287 71.0104 15.5972C70.6308 15.3657 70.2049 15.25 69.7326 15.25C69.2697 15.25 68.8438 15.3657 68.4549 15.5972C68.0752 15.8287 67.7697 16.1389 67.5382 16.5278C67.316 16.9167 67.2049 17.3519 67.2049 17.8333C67.2049 18.3056 67.316 18.7407 67.5382 19.1389C67.7697 19.5278 68.0752 19.838 68.4549 20.0694C68.8345 20.3009 69.2604 20.4167 69.7326 20.4167ZM79.8234 22.2222C79.0085 22.2222 78.2632 22.0278 77.5872 21.6389C76.9113 21.2407 76.3743 20.7083 75.9761 20.0417C75.578 19.375 75.3789 18.6389 75.3789 17.8333C75.3789 17.0185 75.578 16.2824 75.9761 15.625C76.3743 14.9583 76.9113 14.4306 77.5872 14.0417C78.2632 13.6435 79.0085 13.4444 79.8234 13.4444C80.6474 13.4444 81.3928 13.6435 82.0595 14.0417C82.7354 14.4306 83.2724 14.9583 83.6706 15.625C84.0687 16.2824 84.2678 17.0185 84.2678 17.8333C84.2678 18.6389 84.0687 19.375 83.6706 20.0417C83.2724 20.7083 82.7354 21.2407 82.0595 21.6389C81.3928 22.0278 80.6474 22.2222 79.8234 22.2222ZM79.8234 20.4306C80.2956 20.4306 80.7261 20.3148 81.115 20.0833C81.5039 19.8426 81.8095 19.5278 82.0317 19.1389C82.2632 18.75 82.3789 18.3148 82.3789 17.8333C82.3789 17.3519 82.2632 16.9167 82.0317 16.5278C81.8095 16.1389 81.5039 15.8287 81.115 15.5972C80.7261 15.3565 80.2956 15.2361 79.8234 15.2361C79.3511 15.2361 78.9206 15.3565 78.5317 15.5972C78.1428 15.8287 77.8326 16.1389 77.6011 16.5278C77.3789 16.9167 77.2678 17.3519 77.2678 17.8333C77.2678 18.3148 77.3789 18.75 77.6011 19.1389C77.8326 19.5278 78.1382 19.8426 78.5178 20.0833C78.9067 20.3148 79.3419 20.4306 79.8234 20.4306Z" fill="white"/>
<path d="M20.84 2.17999L16.91 2.95999L19.65 6.49999L21.62 6.09999L20.84 2.17999ZM13.97 3.53999L12 3.92999L14.75 7.45999L16.71 7.06999L13.97 3.53999ZM9.06999 4.49999L7.09999 4.90999L9.84999 8.43999L11.81 8.04999L9.06999 4.49999ZM4.15999 5.49999L3.17999 5.68999C2.66038 5.79381 2.2032 6.09959 1.90884 6.5402C1.61447 6.9808 1.50699 7.52021 1.60999 8.03999L1.99999 9.99999L6.89999 9.02999L4.15999 5.49999ZM1.99999 9.99999V20C1.99999 20.5304 2.21071 21.0391 2.58578 21.4142C2.96085 21.7893 3.46956 22 3.99999 22H20C21.11 22 22 21.11 22 20V9.99999H1.99999Z" fill="white"/>
</svg>
