<svg width="26" height="26" viewBox="0 0 26 26" fill="none" xmlns="http://www.w3.org/2000/svg">
<path d="M8 18.6667C8 18.6667 17.3333 20 21.3333 24H22.6667C23.0203 24 23.3594 23.8595 23.6095 23.6095C23.8595 23.3594 24 23.0203 24 22.6667V14.5827C24.573 14.4353 25.0808 14.1016 25.4433 13.6341C25.8059 13.1665 26.0026 12.5917 26.0026 12C26.0026 11.4083 25.8059 10.8335 25.4433 10.3659C25.0808 9.89838 24.573 9.56466 24 9.41733V1.33333C24 0.979711 23.8595 0.640573 23.6095 0.390524C23.3594 0.140476 23.0203 0 22.6667 0H21.3333C17.3333 4 8 5.33333 8 5.33333H2.66667C1.95942 5.33333 1.28115 5.61428 0.781048 6.11438C0.280951 6.61448 0 7.29276 0 8V16C0 16.7072 0.280951 17.3855 0.781048 17.8856C1.28115 18.3857 1.95942 18.6667 2.66667 18.6667H4.5L5.33333 25.3333H8V18.6667ZM10.6667 7.548C11.5773 7.35333 12.7027 7.08133 13.92 6.72533C16.1573 6.06667 19 5.03067 21.3333 3.432V20.5667C19 18.9693 16.156 17.9333 13.92 17.2747C12.8461 16.9608 11.7609 16.6869 10.6667 16.4533V7.548ZM2.66667 8H8V16H2.66667V8Z" fill="white"/>
</svg>
