<svg width="44" height="44" viewBox="0 0 44 44" fill="none" xmlns="http://www.w3.org/2000/svg">
<path d="M16.0633 26.6265C13.111 26.6265 10.6126 25.6038 8.56822 23.5583C6.52382 21.5128 5.50108 19.0145 5.5 16.0632C5.49892 13.112 6.52166 10.6137 8.56822 8.56822C10.6148 6.52274 13.1131 5.5 16.0633 5.5C19.0134 5.5 21.5123 6.52274 23.5599 8.56822C25.6076 10.6137 26.6298 13.112 26.6265 16.0632C26.6265 17.255 26.4369 18.379 26.0577 19.4354C25.6785 20.4917 25.1639 21.4261 24.5139 22.2387L33.6145 31.3393C33.9124 31.6373 34.0614 32.0165 34.0614 32.4769C34.0614 32.9374 33.9124 33.3166 33.6145 33.6145C33.3166 33.9124 32.9374 34.0614 32.4769 34.0614C32.0165 34.0614 31.6373 33.9124 31.3393 33.6145L22.2387 24.5138C21.4261 25.1639 20.4917 25.6785 19.4354 26.0577C18.379 26.4369 17.255 26.6265 16.0633 26.6265ZM16.0633 23.3763C18.0946 23.3763 19.8216 22.6656 21.2441 21.2441C22.6666 19.8227 23.3774 18.0957 23.3763 16.0632C23.3752 14.0308 22.6645 12.3044 21.2441 10.884C19.8238 9.46366 18.0968 8.7524 16.0633 8.75023C14.0297 8.74806 12.3033 9.45932 10.884 10.884C9.46474 12.3087 8.75348 14.0351 8.75023 16.0632C8.74698 18.0914 9.45824 19.8183 10.884 21.2441C12.3098 22.6699 14.0362 23.3806 16.0633 23.3763Z" fill="white"/>
</svg>
