<svg width="3" height="3" viewBox="0 0 3 3" fill="none" xmlns="http://www.w3.org/2000/svg">
<path fill-rule="evenodd" clip-rule="evenodd" d="M2.2489 0.751261L0.674899 1.32039L1.19927 1.62389L1.66165 1.16139C1.6851 1.13795 1.71691 1.12479 1.75007 1.1248C1.78323 1.12481 1.81502 1.13799 1.83846 1.16145C1.8619 1.1849 1.87506 1.21671 1.87505 1.24987C1.87504 1.28303 1.86185 1.31482 1.8384 1.33826L1.3759 1.80076L1.67965 2.32501L2.2489 0.751261ZM2.28927 0.470761C2.43865 0.416636 2.5834 0.561386 2.52927 0.710761L1.86902 2.53639C1.81477 2.68614 1.61027 2.70439 1.5304 2.56651L1.12827 1.87176L0.433524 1.46964C0.295649 1.38976 0.313899 1.18526 0.463649 1.13101L2.28927 0.470761Z" fill="white"/>
</svg>
