<svg width="36" height="28" viewBox="0 0 36 28" fill="none" xmlns="http://www.w3.org/2000/svg">
<path d="M2.69136 17.2393C2.10814 16.2678 1.80005 15.1559 1.80005 14.0227C1.80005 12.8895 2.10814 11.7776 2.69136 10.806C2.8706 10.5069 3.11043 10.2485 3.39545 10.0476C3.68048 9.8467 4.00439 9.70763 4.34636 9.63935L7.16803 9.07435C7.3363 9.04103 7.48807 8.95102 7.59803 8.81935L11.0447 4.68101C13.0147 2.31435 14.0014 1.13268 14.8797 1.45101C15.758 1.76935 15.7614 3.30935 15.7614 6.38935V21.6593C15.7614 24.7377 15.7614 26.276 14.8814 26.596C14.003 26.9127 13.0164 25.731 11.0464 23.366L7.59469 19.226C7.48516 19.0947 7.33403 19.0047 7.16636 18.971L4.34469 18.406C4.00272 18.3377 3.67881 18.1987 3.39379 17.9977C3.10876 17.7968 2.8706 17.5385 2.69136 17.2393Z" stroke="white" stroke-width="2"/>
<path d="M23.3214 8.12936C24.8765 9.68435 25.7538 11.791 25.7622 13.9901C25.7707 16.1892 24.9095 18.3025 23.3664 19.8694M30.1897 4.59436C32.6778 7.08214 34.0817 10.4525 34.0954 13.9709C34.1091 17.4893 32.7316 20.8706 30.2631 23.3777" stroke="white" stroke-width="2" stroke-linecap="round"/>
</svg>
