<svg width="34" height="28" viewBox="0 0 34 28" fill="none" xmlns="http://www.w3.org/2000/svg">
<path d="M1.69136 17.2393C1.10814 16.2678 0.800049 15.1559 0.800049 14.0227C0.800049 12.8895 1.10814 11.7776 1.69136 10.806C1.8706 10.5069 2.11043 10.2485 2.39545 10.0476C2.68048 9.8467 3.00439 9.70763 3.34636 9.63935L6.16803 9.07435C6.3363 9.04103 6.48807 8.95102 6.59803 8.81935L10.0447 4.68101C12.0147 2.31435 13.0014 1.13268 13.8797 1.45101C14.758 1.76935 14.7614 3.30935 14.7614 6.38935V21.6593C14.7614 24.7377 14.7614 26.276 13.8814 26.596C13.003 26.9127 12.0164 25.731 10.0464 23.366L6.59469 19.226C6.48516 19.0947 6.33403 19.0047 6.16636 18.971L3.34469 18.406C3.00272 18.3377 2.67881 18.1987 2.39379 17.9977C2.10876 17.7968 1.8706 17.5385 1.69136 17.2393Z" stroke="white"/>
<path d="M22.3214 8.12936C23.8765 9.68435 24.7538 11.791 24.7622 13.9901C24.7707 16.1892 23.9095 18.3025 22.3664 19.8694M29.1897 4.59436C31.6778 7.08214 33.0817 10.4525 33.0954 13.9709C33.1091 17.4893 31.7316 20.8706 29.2631 23.3777" stroke="white" stroke-linecap="round"/>
</svg>
