<svg width="33" height="28" viewBox="0 0 33 28" fill="none" xmlns="http://www.w3.org/2000/svg">
<path d="M1.89131 16.8394C1.30809 15.8678 1 14.7559 1 13.6227C1 12.4895 1.30809 11.3776 1.89131 10.4061C2.07055 10.1069 2.31038 9.84858 2.59541 9.64766C2.88043 9.44674 3.20434 9.30767 3.54631 9.23938L6.36798 8.67438C6.53625 8.64106 6.68802 8.55106 6.79798 8.41938L10.2446 4.28105C12.2146 1.91438 13.2013 0.732717 14.0796 1.05105C14.958 1.36938 14.9613 2.90938 14.9613 5.98938V21.2594C14.9613 24.3377 14.9613 25.8761 14.0813 26.1961C13.203 26.5127 12.2163 25.3311 10.2463 22.9661L6.79464 18.826C6.68512 18.6947 6.53399 18.6047 6.36631 18.571L3.54464 18.0061C3.20267 17.9378 2.87876 17.7987 2.59374 17.5978C2.30872 17.3969 2.07055 17.1385 1.89131 16.8394Z" stroke="white" stroke-width="2"/>
<path d="M21.6279 18.6227L31.6279 8.62274M31.6279 18.6227L21.6279 8.62274" stroke="white" stroke-width="2" stroke-linecap="round"/>
</svg>
