<svg width="33" height="27" viewBox="0 0 33 27" fill="none" xmlns="http://www.w3.org/2000/svg">
<path d="M1.89131 16.4016C1.30809 15.43 1 14.3181 1 13.1849C1 12.0517 1.30809 10.9398 1.89131 9.96825C2.07055 9.66911 2.31038 9.41078 2.59541 9.20986C2.88043 9.00893 3.20434 8.86986 3.54631 8.80158L6.36798 8.23658C6.53625 8.20326 6.68802 8.11325 6.79798 7.98158L10.2446 3.84325C12.2146 1.47658 13.2013 0.294912 14.0796 0.613246C14.958 0.931579 14.9613 2.47158 14.9613 5.55158V20.8216C14.9613 23.8999 14.9613 25.4382 14.0813 25.7582C13.203 26.0749 12.2163 24.8932 10.2463 22.5282L6.79464 18.3882C6.68512 18.2569 6.53399 18.1669 6.36631 18.1332L3.54464 17.5682C3.20267 17.5 2.87876 17.3609 2.59374 17.16C2.30872 16.959 2.07055 16.7007 1.89131 16.4016Z" stroke="white"/>
<path d="M21.628 18.1849L31.628 8.18494M31.628 18.1849L21.628 8.18494" stroke="white" stroke-linecap="round"/>
</svg>
